<?xml version="1.0" encoding="UTF-8"?>
<svg version="1.1" xmlns="http://www.w3.org/2000/svg" width="100" height="100">
<path d="M0 0 C1.175625 -0.00515625 2.35125 -0.0103125 3.5625 -0.015625 C7.02682033 0.25207248 9.73781271 1.11031081 13 2.25 C16.23914661 1.93243661 18.9152045 1.27826517 22 0.25 C33.36777945 -0.45121534 41.23848828 -0.22543207 50 7.4375 C51.34377409 8.69728821 52.68085534 9.96444467 54 11.25 C53.34 12.57 52.68 13.89 52 15.25 C48.28608964 14.82147188 46.43892534 12.90301815 43.69140625 10.52734375 C38.67355627 6.73788199 33.22828882 5.91603441 27.078125 5.94921875 C24.72757336 6.28943017 23.0569768 7.08715951 21 8.25 C21.66 8.58 22.32 8.91 23 9.25 C22.67 10.57 22.34 11.89 22 13.25 C20.25 14 20.25 14 18 14.25 C16.62150897 12.96340837 15.29470975 11.62086915 14 10.25 C7.74083876 6.7292218 2.14184996 5.41583192 -5 6.25 C-12.35516397 8.5507239 -17.93364789 11.98631916 -21.8125 18.75 C-24.88558546 25.35324376 -25.1306494 31.72740241 -23.37109375 38.765625 C-21.13896875 44.65122814 -17.27730292 48.86013104 -12 52.25 C-7.30206092 54.26529032 -3.39043388 54.41168546 1.6875 54.25 C8.66855524 54.02903683 8.66855524 54.02903683 12 56.25 C12 57.24 12 58.23 12 59.25 C1.84305965 61.91592144 -7.25233661 62.07096582 -16.640625 56.8984375 C-23.96218423 51.78304347 -28.34711143 45.26050388 -30.6875 36.75 C-31.78339043 27.98287654 -30.32332173 18.04545352 -24.8125 10.8125 C-17.34583876 4.00954198 -10.30366711 -0.04519152 0 0 Z " fill="#44B6A7" transform="translate(32,16.75)"/>
<path d="M0 0 C2.475 0.99 2.475 0.99 5 2 C3.98036985 4.10120045 2.92459075 6.1240825 1.7109375 8.12109375 C-2.26969179 15.02317904 -3.09779089 21.11403427 -2 29 C-0.4550552 33.94852876 2.0475972 37.61222617 6 41 C9.31856892 39.62021122 10.83073097 38.25087603 12.6875 35.1875 C13.10386719 34.52105469 13.52023438 33.85460938 13.94921875 33.16796875 C15.2919127 30.62899121 15.2919127 30.62899121 16 26 C10.06 25.67 4.12 25.34 -2 25 C-2 23.35 -2 21.7 -2 20 C5.92 20 13.84 20 22 20 C22 31.28467153 22 31.28467153 19.1875 36.4375 C18.66542969 37.42621094 18.14335938 38.41492187 17.60546875 39.43359375 C16.22105676 41.6466319 14.941297 43.28023238 13 45 C17.46052133 47.23026067 23.16308846 46.49456062 28 46 C33.08368126 44.27208209 37.3472154 41.96687754 41 38 C42.32 38.66 43.64 39.32 45 40 C44.65123006 42.82752773 44.13975282 43.8685658 42.03125 45.8515625 C32.99375456 52.18338801 26.14570559 53.72076204 15.14453125 52.59375 C6.8706013 51.03146757 -0.06348868 45.73059332 -5 39 C-9.02047204 30.89110428 -10.65783552 22.12601253 -8.26953125 13.30078125 C-6.33324482 8.01353382 -3.86176651 4.07630909 0 0 Z " fill="#44B6A7" transform="translate(40,25)"/>
<path d="M0 0 C2.69652159 0.98872458 3.79023547 1.59212453 5.125 4.1875 C6.13828942 7.44450171 7.09704742 10.71067273 8 14 C8.33 14 8.66 14 9 14 C9.33 12.02 9.66 10.04 10 8 C11.32 8 12.64 8 14 8 C16.67927341 12.01891012 16.15601248 14.24161923 16 19 C16.66 19 17.32 19 18 19 C18.33 17.02 18.66 15.04 19 13 C20.9375 13.3125 20.9375 13.3125 23 14 C23.33 14.99 23.66 15.98 24 17 C24.66 16.34 25.32 15.68 26 15 C28.625 14.875 28.625 14.875 31 15 C30.42655063 17.86724686 30.1385485 18.8614515 28 21 C28 21.99 28 22.98 28 24 C27.01 24.66 26.02 25.32 25 26 C24.67 26.99 24.34 27.98 24 29 C22.02 29.33 20.04 29.66 18 30 C18.33 31.65 18.66 33.3 19 35 C15.55308182 35 13.5331209 34.16657558 10.375 32.8125 C9.39273438 32.40644531 8.41046875 32.00039063 7.3984375 31.58203125 C5 30 5 30 4.1640625 27.32421875 C4.10992187 26.55722656 4.05578125 25.79023437 4 25 C4.66 25 5.32 25 6 25 C6 24.34 6 23.68 6 23 C5.401875 22.896875 4.80375 22.79375 4.1875 22.6875 C1.71756736 21.91123545 0.67748765 20.92911079 -1 19 C-0.505 17.515 -0.505 17.515 0 16 C0.99 15.67 1.98 15.34 3 15 C2.34 14.175 1.68 13.35 1 12.5 C-1.6132765 8.6308733 -1.38752142 5.57275279 -1 1 C-0.67 0.67 -0.34 0.34 0 0 Z M9 24 C10.32 24.99 11.64 25.98 13 27 C13.33 26.34 13.66 25.68 14 25 C12.35 24.67 10.7 24.34 9 24 Z " fill="#61C4B0" transform="translate(69,29)"/>
<path d="M0 0 C1.9375 0.3125 1.9375 0.3125 4 1 C4.33 1.99 4.66 2.98 5 4 C5.66 3.34 6.32 2.68 7 2 C9.625 1.875 9.625 1.875 12 2 C11.42655063 4.86724686 11.1385485 5.8614515 9 8 C9 8.99 9 9.98 9 11 C8.01 11.66 7.02 12.32 6 13 C5.67 13.99 5.34 14.98 5 16 C3.02 16.33 1.04 16.66 -1 17 C-0.67 18.65 -0.34 20.3 0 22 C-0.99 22 -1.98 22 -3 22 C-3.66 21.34 -4.32 20.68 -5 20 C-4.67 19.01 -4.34 18.02 -4 17 C-4.66 16.67 -5.32 16.34 -6 16 C-5.67 14.68 -5.34 13.36 -5 12 C-5.66 11.67 -6.32 11.34 -7 11 C-6.34 11 -5.68 11 -5 11 C-5 9.68 -5 8.36 -5 7 C-3.68 6.67 -2.36 6.34 -1 6 C-0.67 4.02 -0.34 2.04 0 0 Z " fill="#5EC1AF" transform="translate(88,42)"/>
<path d="M0 0 C7.92 0 15.84 0 24 0 C24 12 24 12 22 15 C18.875 16.8125 18.875 16.8125 16 18 C16.55450162 13.96005961 17.19955576 10.00222119 18 6 C12.06 5.67 6.12 5.34 0 5 C0 3.35 0 1.7 0 0 Z " fill="#2FAE9F" transform="translate(38,45)"/>
<path d="M0 0 C0 0.66 0 1.32 0 2 C-1.2065625 2.433125 -1.2065625 2.433125 -2.4375 2.875 C-5.1326468 3.73262568 -5.1326468 3.73262568 -6 6 C-5.01 6.33 -4.02 6.66 -3 7 C-4.19625 7.495 -5.3925 7.99 -6.625 8.5 C-12.49960943 11.42688874 -15.68752135 16.13641021 -18.375 22 C-18.58125 22.66 -18.7875 23.32 -19 24 C-19.5534764 21.92446352 -20 20.15634036 -20 18 C-20.66 18 -21.32 18 -22 18 C-22 18.99 -22 19.98 -22 21 C-22.66 21 -23.32 21 -24 21 C-22.31969956 13.36227075 -18.9243131 9.17328082 -12.5625 4.75 C-8.64446123 2.25551532 -4.76683832 0 0 0 Z " fill="#51BBAC" transform="translate(27,17)"/>
<path d="M0 0 C1.32 0.66 2.64 1.32 4 2 C3.66756117 4.95283904 3.1280648 5.88733097 0.85546875 7.88671875 C-0.02496094 8.48097656 -0.90539062 9.07523438 -1.8125 9.6875 C-2.68519531 10.28949219 -3.55789062 10.89148438 -4.45703125 11.51171875 C-6.72203202 12.83731828 -8.43926597 13.55231923 -11 14 C-10.67 12.68 -10.34 11.36 -10 10 C-11.65 10 -13.3 10 -15 10 C-12.21946371 7.21946371 -8.94485773 5.9770392 -5.41015625 4.31640625 C-3.15498556 3.08465175 -1.68873836 1.91167412 0 0 Z " fill="#54BCAC" transform="translate(81,63)"/>
<path d="M0 0 C2.475 0.99 2.475 0.99 5 2 C4.7215625 2.55558594 4.443125 3.11117188 4.15625 3.68359375 C3.36044634 5.2778896 2.56902657 6.8743788 1.78125 8.47265625 C1.3584375 9.32730469 0.935625 10.18195312 0.5 11.0625 C0.0771875 11.91972656 -0.345625 12.77695312 -0.78125 13.66015625 C-2 16 -2 16 -4 19 C-4 16.36 -4 13.72 -4 11 C-4.99 11.33 -5.98 11.66 -7 12 C-5.63855967 6.80177328 -3.53269829 3.90456127 0 0 Z " fill="#4EBAAA" transform="translate(40,25)"/>
<path d="M0 0 C0.66 0 1.32 0 2 0 C2.33 1.65 2.66 3.3 3 5 C5.64 4.67 8.28 4.34 11 4 C10.67 5.65 10.34 7.3 10 9 C8.02 9.33 6.04 9.66 4 10 C4.33 11.65 4.66 13.3 5 15 C4.01 15 3.02 15 2 15 C1.34 14.34 0.68 13.68 0 13 C0.33 12.01 0.66 11.02 1 10 C0.34 9.67 -0.32 9.34 -1 9 C-0.67 7.68 -0.34 6.36 0 5 C-0.66 4.67 -1.32 4.34 -2 4 C-1.34 4 -0.68 4 0 4 C0 2.68 0 1.36 0 0 Z " fill="#88D1BE" transform="translate(83,49)"/>
<path d="M0 0 C3.875 1.875 3.875 1.875 5 3 C5.07226502 4.85287502 5.0838122 6.70833878 5.0625 8.5625 C5.05347656 9.57441406 5.04445313 10.58632813 5.03515625 11.62890625 C5.02355469 12.41136719 5.01195313 13.19382812 5 14 C1.83884224 12.63016497 1.0072908 12.0109362 -1 9 C-1.31254378 6.27716095 -1.13333428 3.75557514 -1 1 C-0.67 0.67 -0.34 0.34 0 0 Z " fill="#44B7A6" transform="translate(69,29)"/>
<path d="M0 0 C0.33 0.66 0.66 1.32 1 2 C2.65 2 4.3 2 6 2 C6 2.99 6 3.98 6 5 C6.99 5.33 7.98 5.66 9 6 C8.67 6.99 8.34 7.98 8 9 C6.53984709 8.71758359 5.08190207 8.42373386 3.625 8.125 C2.81289062 7.96257813 2.00078125 7.80015625 1.1640625 7.6328125 C-1 7 -1 7 -3 5 C-3 3.68 -3 2.36 -3 1 C-2.01 0.67 -1.02 0.34 0 0 Z " fill="#52BDAA" transform="translate(76,53)"/>
<path d="M0 0 C4.3177458 0.50797009 8.03302114 1.19682779 12 3 C11.67 3.66 11.34 4.32 11 5 C9.0390625 5.51953125 9.0390625 5.51953125 6.625 5.8125 C5.83351563 5.92207031 5.04203125 6.03164063 4.2265625 6.14453125 C2 6 2 6 0.2109375 4.51171875 C-0.18867187 4.01285156 -0.58828125 3.51398437 -1 3 C-0.67 2.01 -0.34 1.02 0 0 Z " fill="#48B8A8" transform="translate(69,45)"/>
<path d="M0 0 C0.99 1.485 0.99 1.485 2 3 C2.66 2.34 3.32 1.68 4 1 C6.625 0.875 6.625 0.875 9 1 C8.6875 2.875 8.6875 2.875 8 5 C4.77208445 7.1519437 3.71599191 7.20086443 0 7 C0 4.69 0 2.38 0 0 Z " fill="#6EC7B5" transform="translate(91,43)"/>
<path d="M0 0 C-0.33 1.32 -0.66 2.64 -1 4 C-3.875 4.625 -3.875 4.625 -7 5 C-7.66 4.34 -8.32 3.68 -9 3 C-8.67 2.01 -8.34 1.02 -8 0 C-2.25 -1.125 -2.25 -1.125 0 0 Z " fill="#72C9B7" transform="translate(94,54)"/>
<path d="M0 0 C1.32 0.66 2.64 1.32 4 2 C4 2.99 4 3.98 4 5 C3.01 5 2.02 5 1 5 C0.67 6.32 0.34 7.64 0 9 C-0.66 8.34 -1.32 7.68 -2 7 C-1.43181818 1.43181818 -1.43181818 1.43181818 0 0 Z " fill="#49B8A8" transform="translate(80,36)"/>
<path d="M0 0 C0.33 0 0.66 0 1 0 C1.268125 1.134375 1.53625 2.26875 1.8125 3.4375 C2.4003125 5.2009375 2.4003125 5.2009375 3 7 C3.99 7.33 4.98 7.66 6 8 C5.67 9.32 5.34 10.64 5 12 C2.525 11.01 2.525 11.01 0 10 C0 9.34 0 8.68 0 8 C-0.66 7.67 -1.32 7.34 -2 7 C-1.34 7 -0.68 7 0 7 C0 4.69 0 2.38 0 0 Z " fill="#90D5C3" transform="translate(74,36)"/>
<path d="M0 0 C0.99 0.66 1.98 1.32 3 2 C1.68 5.3 0.36 8.6 -1 12 C-1.90574136 8.37703454 -2.24080386 5.69232582 -2 2 C-1.34 1.34 -0.68 0.68 0 0 Z M-4 1 C-3.34 1.99 -2.68 2.98 -2 4 C-2.99 4.33 -3.98 4.66 -5 5 C-4.67 3.68 -4.34 2.36 -4 1 Z " fill="#6DC6B6" transform="translate(38,32)"/>
<path d="M0 0 C1.32 0 2.64 0 4 0 C4 0.66 4 1.32 4 2 C4.66 2 5.32 2 6 2 C6 2.66 6 3.32 6 4 C7.32 4.33 8.64 4.66 10 5 C10.33 4.01 10.66 3.02 11 2 C11 3.32 11 4.64 11 6 C9.234375 6.6796875 9.234375 6.6796875 7 7 C5.078125 5.8203125 5.078125 5.8203125 3.25 4.125 C2.63640625 3.57070313 2.0228125 3.01640625 1.390625 2.4453125 C0 1 0 1 0 0 Z " fill="#7ECDBD" transform="translate(74,25)"/>
<path d="M0 0 C0.33 0 0.66 0 1 0 C1 3.63 1 7.26 1 11 C-3 9 -3 9 -4 7 C-3.34 7 -2.68 7 -2 7 C-2.33 5.68 -2.66 4.36 -3 3 C-2.34 3 -1.68 3 -1 3 C-0.67 2.01 -0.34 1.02 0 0 Z " fill="#57C1AB" transform="translate(73,32)"/>
<path d="M0 0 C0.33 0.66 0.66 1.32 1 2 C4.465 1.505 4.465 1.505 8 1 C8 1.99 8 2.98 8 4 C4.37673261 5.2077558 3.35853631 4.54311128 0 3 C0 2.01 0 1.02 0 0 Z " fill="#44B8A3" transform="translate(89,49)"/>
<path d="M0 0 C0.99 0 1.98 0 3 0 C3 1.98 3 3.96 3 6 C2.01 5.67 1.02 5.34 0 5 C0 3.35 0 1.7 0 0 Z " fill="#3BB4A1" transform="translate(85,49)"/>
</svg>
